<?xml version="1.0" encoding="UTF-8"?>
<svg id="Capa_1" data-name="Capa 1" xmlns="http://www.w3.org/2000/svg" viewBox="0 0 704.08 102.77">
  <defs>
    <style>
      .cls-1 {
        fill: #1d1d1b;
      }
    </style>
  </defs>
  <path class="cls-1" d="M61.7,57.2H12.26v43.98H0V6.03h12.26v40.65h49.44V6.03h12.26v95.15h-12.26v-43.98Z"/>
  <path class="cls-1" d="M88.62,65.46c0-22.79,12.66-37.18,34.25-37.18s34.12,14.53,34.12,37.18-12.39,37.31-34.12,37.31-34.25-14.66-34.25-37.31ZM145.26,65.46c0-16.39-7.59-27.99-22.39-27.99s-22.52,11.73-22.52,27.99,7.59,28.12,22.52,28.12,22.39-11.86,22.39-28.12Z"/>
  <path class="cls-1" d="M191.9,6.03h7.86v9.2h-6.66c-5.33,0-7.33,2.13-7.33,7.2v7.46h13.33v8.66h-13.33v62.63h-11.59v-62.63h-10.8v-8.66h10.8v-7.46c0-11.46,5.06-16.39,17.72-16.39Z"/>
  <path class="cls-1" d="M273.06,57.2h-49.44v43.98h-12.26V6.03h12.26v40.65h49.44V6.03h12.26v95.15h-12.26v-43.98Z"/>
  <path class="cls-1" d="M300.11,80.79c0-15.06,11.59-18.92,25.59-21.19l23.59-3.86v-4.27c0-9.46-5.73-14.39-17.06-14.39-10.53,0-17.19,4.53-17.99,13.46h-11.46c.4-14.13,11.33-22.25,29.45-22.25,13.99,0,22.39,3.86,26.12,11.33,1.6,3.33,2.4,7.46,2.4,11.46v33.31c0,7.6,0,9.46.67,16.79h-11.73l-.27-7.6h-.4c-3.47,4.53-10.93,9.2-23.05,9.2-14.79,0-25.85-8.53-25.85-21.99ZM349.68,74.79v-10.93l-21.99,4c-8.67,1.47-15.59,4.53-15.59,12.79s6.8,13.59,16.13,13.59c11.59,0,21.46-6.66,21.46-19.45Z"/>
  <path class="cls-1" d="M377.26,76.92V29.88h11.73v45.58c0,11.06,5.33,18.12,16.13,18.12,12.26,0,20.25-9.46,20.25-22.52V29.88h11.73v60.37l.27,10.93h-11.73l-.27-11.19h-.4c-2.53,6-10.66,12.79-22.79,12.79-15.59,0-24.92-9.86-24.92-25.85Z"/>
  <path class="cls-1" d="M450.42,79.72h11.73c.8,9.2,7.2,14.26,17.46,14.26,10.8,0,17.72-4.53,17.72-11.73s-4.8-9.46-15.32-11.59l-6.53-1.33c-15.19-3.06-23.72-7.2-23.72-20.39,0-11.59,11.86-20.65,27.72-20.65s27.32,6.53,27.99,21.19h-11.73c-.54-8.26-8-12.39-16.53-12.39s-15.99,4.27-15.99,10.93,4.4,8.93,14.39,11.06l6.53,1.33c14.92,3.07,24.52,6.53,24.52,20.79,0,12.39-11.46,21.59-29.32,21.59s-28.25-7.73-28.92-23.05Z"/>
  <path class="cls-1" d="M515.83,29.06c0-16.32,12.97-29.06,29.14-29.06s29.06,12.82,29.06,29.06-12.9,29.06-29.06,29.06-29.14-12.82-29.14-29.06ZM568.2,29.06c0-13.21-9.64-23.62-23.23-23.62s-23.23,10.49-23.23,23.62,9.55,23.62,23.23,23.62,23.23-10.49,23.23-23.62ZM542.94,24.48h-7.77v-4.66c5.75-.39,7.85-2.8,9.01-7.15h5.51v32.79h-6.76v-20.98Z"/>
  <path class="cls-1" d="M580.85,29.06c0-16.32,12.97-29.06,29.14-29.06s29.06,12.82,29.06,29.06-12.9,29.06-29.06,29.06-29.14-12.82-29.14-29.06ZM633.22,29.06c0-13.21-9.64-23.62-23.23-23.62s-23.23,10.49-23.23,23.62,9.55,23.62,23.23,23.62,23.23-10.49,23.23-23.62ZM598.26,39.71l11.81-10.57c3.11-2.8,4.74-4.43,4.74-7.3,0-2.64-1.4-4.66-4.66-4.66s-4.59,2.25-4.74,5.36h-6.91c.39-7.3,4.97-10.64,11.81-10.64s11.35,3.65,11.35,10.02c0,3.88-2.56,7.07-5.36,9.48l-9.25,8.47v.31h15.31v5.28h-24.09v-5.75Z"/>
  <path class="cls-1" d="M645.88,29.06c0-16.32,12.98-29.06,29.14-29.06s29.06,12.82,29.06,29.06-12.9,29.06-29.06,29.06-29.14-12.82-29.14-29.06ZM698.25,29.06c0-13.21-9.63-23.62-23.23-23.62s-23.23,10.49-23.23,23.62,9.56,23.62,23.23,23.62,23.23-10.49,23.23-23.62ZM662.66,35.74h6.84c.23,3.65,2.49,5.36,5.75,5.36s5.83-2.02,5.83-4.9c0-3.03-2.33-4.97-5.28-4.97h-3.57v-5.75h2.95c2.56,0,4.66-1.79,4.66-4.27s-2.25-4.2-4.66-4.2-4.5,1.01-5.05,3.73h-6.84c.55-6.29,5.67-8.86,11.89-8.86,6.6,0,11.5,3.34,11.5,8.78,0,3.96-2.8,6.53-5.28,7.38v.31c3.11.7,6.53,3.34,6.53,8.31,0,6.3-5.67,9.56-12.67,9.56-7.61,0-12.43-3.26-12.59-10.49Z"/>
</svg>